<svg width="287" height="276" viewBox="0 0 287 276" fill="none" xmlns="http://www.w3.org/2000/svg">
<path d="M115.335 63.8674L110 102.969L171.658 111.382L176.993 72.2806L115.335 63.8674Z" fill="#EBEBEB"/>
<path d="M112.996 63.8438C115.162 66.5767 117.389 69.1935 119.576 71.8786C121.762 74.5637 124.017 77.16 126.258 79.77C128.588 82.5029 130.938 85.2359 133.281 87.9073C133.357 87.9893 133.418 88.0781 133.493 88.1669C135.575 90.5446 137.663 92.92 139.758 95.2931L140.066 95.6347L140.448 95.3887C143.099 93.6624 145.746 91.927 148.388 90.1825C148.482 90.1281 148.573 90.0688 148.661 90.0048C151.663 88.0371 154.651 86.0489 157.625 84.0402C160.467 82.1271 163.323 80.1799 166.159 78.2327C168.994 76.2855 171.836 74.2973 174.651 72.2544C171.727 73.9351 168.83 75.7184 165.926 77.4538C163.023 79.1892 160.126 80.9998 157.236 82.8172C154.02 84.8168 150.804 86.8506 147.588 88.9185C145.179 90.4489 142.769 91.9885 140.36 93.5372C138.467 91.4055 136.561 89.2601 134.648 87.1489C132.106 84.3158 129.553 81.4963 126.989 78.6905C124.684 76.1762 122.372 73.671 120.054 71.1749C117.669 68.7425 115.36 66.2487 112.996 63.8438Z" fill="white"/>
<path d="M133 89.8047C133.024 89.8282 133.047 89.8533 133.068 89.8798L133.929 90.8364C135.296 92.3532 136.71 93.8153 138.152 95.2501C139.914 97.0128 141.725 98.7277 143.549 100.429C145.373 102.13 147.232 103.77 149.138 105.382C151.044 106.995 152.964 108.594 154.973 110.083C153.326 108.191 151.557 106.4 149.828 104.617C148.1 102.834 146.248 101.14 144.437 99.4451C142.627 97.7507 140.741 96.0905 138.842 94.4712C137.332 93.1799 135.788 91.9091 134.196 90.6929C133.831 90.4059 133.462 90.1258 133.089 89.8525L133 89.8047Z" fill="white"/>
<path d="M130.004 101.722C132.347 100.82 134.636 99.8024 136.891 98.7571C139.146 97.7117 141.38 96.5912 143.607 95.4707C145.834 94.3502 148.028 93.1614 150.194 91.9316C151.963 90.934 153.712 89.8819 155.427 88.816C155.803 88.5837 156.165 88.3514 156.527 88.1328L156.609 88.0781C156.575 88.0868 156.54 88.0868 156.507 88.0781L155.208 88.6042C153.357 89.3489 151.539 90.1688 149.743 91.0024C147.481 92.0546 145.254 93.1614 143.033 94.2956C140.813 95.4297 138.62 96.6049 136.447 97.8416C134.274 99.0782 132.101 100.335 130.004 101.722Z" fill="white"/>
<path d="M164.993 7.28555L114 20.2266L122.207 52.5639L173.199 39.6228L164.993 7.28555Z" fill="#EBEBEB"/>
<path d="M118 20.21C120.562 21.6585 123.138 23.0113 125.707 24.4188C128.276 25.8262 130.858 27.1517 133.441 28.5182C136.133 29.9256 138.832 31.2989 141.531 32.6722L141.777 32.8089L148.944 36.4095L149.292 36.5804L149.518 36.2661C151.048 34.0729 152.565 31.8729 154.089 29.6728C154.145 29.5982 154.197 29.5206 154.246 29.4405C155.977 26.9536 157.689 24.4484 159.384 21.9249C161.01 19.5268 162.629 17.0945 164.235 14.669C165.84 12.2435 167.439 9.78385 169.017 7.29688C167.254 9.53789 165.553 11.8541 163.825 14.1292C162.096 16.4044 160.408 18.7479 158.714 21.0846C156.828 23.6763 154.949 26.2908 153.077 28.9281C151.679 30.8913 150.278 32.8613 148.875 34.8381C146.689 33.7449 144.516 32.6859 142.351 31.6337C139.454 30.2126 136.557 28.8097 133.66 27.425C131.063 26.1883 128.46 24.9585 125.857 23.756C123.254 22.5535 120.624 21.3442 118 20.21Z" fill="white"/>
<path d="M131.996 29.6484C132.02 29.6647 132.045 29.6784 132.071 29.6894L133.048 30.1677C134.602 30.9193 136.171 31.6253 137.756 32.2857C139.696 33.1193 141.657 33.8845 143.625 34.6361C145.592 35.3876 147.574 36.0914 149.576 36.7541C151.578 37.4168 153.593 38.0591 155.643 38.592C153.75 37.6286 151.824 36.7746 149.89 35.9479C147.956 35.1212 145.975 34.3559 144.014 33.6044C142.053 32.8528 140.058 32.1422 138.056 31.4795C136.464 30.9466 134.852 30.4342 133.219 29.9832C132.843 29.8739 132.468 29.7783 132.085 29.6758L131.996 29.6484Z" fill="white"/>
<path d="M135 51.5134C136.551 50.0718 138.02 48.5482 139.455 47.0041C140.889 45.4599 142.297 43.8885 143.684 42.3102C145.071 40.732 146.417 39.0922 147.722 37.4456C148.795 36.0791 149.847 34.7126 150.844 33.3462L151.48 32.4511C151.48 32.4511 151.48 32.4033 151.527 32.3828L151.459 32.4443C151.172 32.7176 150.885 32.9841 150.605 33.2642C149.389 34.4325 148.221 35.6487 147.066 36.8853C145.624 38.4226 144.231 40.0009 142.85 41.586C141.47 43.1711 140.117 44.7972 138.812 46.4506C137.507 48.1041 136.202 49.737 135 51.5134Z" fill="white"/>
<path d="M167.247 147.512L114.996 153.641L118.883 186.776L171.134 180.647L167.247 147.512Z" fill="#EBEBEB"/>
<path d="M117.004 153.66C119.354 155.429 121.732 157.11 124.089 158.852C126.446 160.595 128.838 162.234 131.222 163.902C133.607 165.569 136.203 167.366 138.697 169.081L138.922 169.244C141.122 170.752 143.331 172.258 145.549 173.761L145.877 173.972L146.137 173.692C147.959 171.72 149.758 169.741 151.535 167.755C151.604 167.692 151.668 167.623 151.726 167.55C153.762 165.309 155.789 163.05 157.807 160.772C159.733 158.613 161.653 156.413 163.566 154.22C165.479 152.027 167.386 149.8 169.258 147.531C167.208 149.526 165.227 151.631 163.211 153.633C161.196 155.634 159.214 157.732 157.226 159.857C155.017 162.171 152.815 164.514 150.619 166.887C148.973 168.65 147.333 170.426 145.686 172.196C143.677 170.83 141.669 169.497 139.66 168.172C136.982 166.382 134.294 164.61 131.598 162.856C129.193 161.285 126.776 159.732 124.349 158.197C121.869 156.687 119.45 155.129 117.004 153.66Z" fill="white"/>
<path d="M132 167.672L132.068 167.72C132.369 167.925 132.676 168.13 132.977 168.321C134.419 169.277 135.881 170.179 137.37 171.054C139.181 172.127 141.026 173.145 142.877 174.156C144.729 175.167 146.601 176.11 148.5 177.032C150.4 177.955 152.306 178.856 154.267 179.649C152.524 178.447 150.721 177.346 148.91 176.281C147.1 175.215 145.241 174.183 143.396 173.179C141.552 172.174 139.666 171.211 137.773 170.289C136.263 169.551 134.726 168.833 133.168 168.171C132.813 168.016 132.451 167.865 132.082 167.72L132 167.672Z" fill="white"/>
<path d="M134 185.731C135.729 184.502 137.416 183.183 139.008 181.851C140.6 180.518 142.233 179.118 143.791 177.751C145.349 176.385 146.92 174.929 148.437 173.461C149.673 172.272 150.89 171.062 152.065 169.805L152.816 168.999C152.836 168.98 152.854 168.959 152.871 168.938C152.849 168.958 152.824 168.974 152.796 168.985L151.846 169.669C150.48 170.673 149.168 171.718 147.856 172.791C146.223 174.157 144.638 175.524 143.073 176.89C141.509 178.257 139.944 179.712 138.427 181.181C136.911 182.65 135.421 184.153 134 185.731Z" fill="white"/>
<path d="M152.43 8.67452C147.176 8.77701 139.523 8.98198 134.338 8.98198H134.037V8.67452L133.996 1.02912V0.6875H134.338C139.756 0.6875 147.278 0.742159 152.621 0.844644C152.621 3.16765 152.471 6.31053 152.43 8.67452ZM152.43 8.67452C152.361 6.44034 152.293 3.20864 152.245 1.02912L152.43 1.22042C147.203 1.30924 139.646 1.35707 134.338 1.37074L134.679 1.02912L134.645 8.67452L134.338 8.3739C139.455 8.3739 147.244 8.57204 152.43 8.67452Z" fill="#EBEBEB"/>
<path d="M134.191 186.472C139.445 186.369 147.098 186.164 152.283 186.164H152.584V186.472L152.625 194.117V194.459H152.283C146.865 194.459 139.343 194.404 134 194.301C134 191.978 134.15 188.836 134.191 186.472ZM134.191 186.472C134.26 188.706 134.328 191.937 134.376 194.117L134.191 193.926C139.418 193.837 146.975 193.789 152.283 193.775L151.942 194.117L151.976 186.472L152.283 186.772C147.166 186.772 139.377 186.574 134.191 186.472Z" fill="#EBEBEB"/>
<path d="M134.215 186.472C139.469 186.369 147.121 186.164 152.307 186.164H152.614V186.472V194.117V194.459H152.273C146.861 194.459 139.332 194.404 133.996 194.301C133.996 191.978 134.14 188.836 134.181 186.472H134.215ZM134.215 186.472C134.283 188.706 134.358 191.937 134.406 194.117L134.215 193.926C139.448 193.837 146.998 193.789 152.307 193.775L151.965 194.117L152.006 186.472L152.307 186.772C147.196 186.772 139.4 186.574 134.215 186.472Z" fill="#EBEBEB"/>
<path d="M134.225 176.815C139.48 176.713 147.132 176.508 152.318 176.508H152.625V176.815V184.461V184.802H152.277C146.865 184.802 139.336 184.748 134 184.645C134 182.322 134.143 179.179 134.184 176.815H134.225ZM134.225 176.815C134.294 179.049 134.369 182.281 134.417 184.461L134.225 184.269C139.459 184.181 147.009 184.133 152.318 184.119L151.983 184.461V176.815L152.283 177.116C147.173 177.116 139.377 176.918 134.191 176.815H134.225Z" fill="#EBEBEB"/>
<path d="M0 274.57C91.9362 274.154 195.064 274.154 287 274.57C195.064 274.994 91.9362 274.987 0 274.57Z" fill="#263238"/>
<path d="M108.321 117.071C111.324 120.744 114.737 124.062 118.496 126.958C114.485 114.799 120.802 90.7185 120.819 94.3559C120.895 111.738 127.322 132.181 131.087 133.944C131.087 133.944 131.087 133.944 131.155 133.944C141.491 137.675 151.784 136.929 160.831 134.199C160.831 134.199 160.831 134.199 160.831 134.139C155.294 120.166 161.068 95.543 161.289 97.1709C163.773 114.604 174.168 126.763 176.331 127.212C186.014 121.319 191.932 114.621 190.957 113.595C183.902 106.133 180.036 90.0401 177.051 73.2687C174.084 56.7347 174.075 41.6252 168.199 26.1511C162.807 11.9912 147.129 6.0814 136.573 10.3887C108.838 21.7166 104.073 111.924 108.321 117.071Z" fill="#263238"/>
<path d="M138.428 9.76562C136.124 10.367 133.978 11.4604 132.137 12.9707C130.262 14.4379 128.525 16.0726 126.947 17.8546C123.88 21.4895 121.209 25.4403 118.977 29.6403C114.373 37.9751 111.346 47.09 109.133 56.2982C107.058 65.5528 105.776 74.9675 105.301 84.4399C105.148 86.8055 105.131 89.1712 105.046 91.5368L105.004 98.6337L105.241 105.714L105.682 112.785V105.705L105.809 98.6337L106.072 91.5707C106.233 89.222 106.318 86.8649 106.539 84.5247C107.203 75.1414 108.592 65.8235 110.693 56.6543C112.69 47.4773 115.823 38.5849 120.02 30.183C122.113 25.982 124.627 22.0047 127.524 18.3124C128.991 16.4719 130.623 14.769 132.399 13.225C133.298 12.4732 134.25 11.7874 135.248 11.1731C136.232 10.5485 137.304 10.0742 138.428 9.76562Z" fill="#263238"/>
<path d="M192.484 111.335C190.651 107.682 189.004 103.938 187.55 100.118C186.04 96.3192 184.675 92.4867 183.497 88.5694C182.318 84.6521 181.258 80.7348 180.444 76.7582C179.63 72.7816 178.952 68.7201 178.206 64.7011C176.62 56.6631 175.043 48.5911 172.991 40.6632C171.94 36.6951 170.821 32.7439 169.439 28.869C168.742 26.9323 167.938 25.0357 167.031 23.1881C166.197 21.3003 164.982 19.6057 163.461 18.2109C164.843 19.7101 165.925 21.46 166.649 23.3662C167.438 25.2444 168.125 27.1633 168.709 29.1149C169.93 33.0067 170.914 36.9749 171.813 40.9854C173.61 48.9557 175.204 56.9768 176.654 65.0233C177.451 69.0423 178.172 73.0529 179.045 77.0889C179.914 81.1062 181.016 85.0697 182.344 88.9594C184.933 96.7517 188.332 104.251 192.484 111.335Z" fill="#263238"/>
<path d="M211.158 275.299H144.818C144.253 273.088 143.688 270.873 143.123 268.651C142.755 267.193 142.385 265.737 142.012 264.284C142.012 264.191 141.97 264.106 141.944 264.013L140.494 258.315C140.443 258.129 140.392 257.942 140.35 257.756C139.985 256.306 139.612 254.856 139.256 253.423C138.329 249.822 137.419 246.258 136.526 242.731C136.187 241.391 135.848 240.043 135.5 238.72C135.491 238.657 135.477 238.595 135.458 238.534C135.246 237.686 135.025 236.838 134.813 235.99C133.431 230.581 132.1 225.332 130.828 220.312C130.676 219.719 130.523 219.151 130.37 218.574C129.251 214.157 128.183 209.951 127.174 206L126.75 204.304C126.504 203.329 126.266 202.379 126.021 201.447C125.8 200.599 125.588 199.768 125.385 198.954C124.774 196.554 124.189 194.299 123.689 192.171C123.604 191.823 123.511 191.492 123.434 191.162C122.671 188.203 122.002 185.549 121.417 183.259C121.306 182.852 121.213 182.462 121.111 182.081C120.899 181.233 120.696 180.453 120.518 179.732C120.424 179.368 120.34 179.02 120.246 178.689L119 173.797H182.202C182.202 173.797 197.286 225.79 211.158 275.299Z" fill="#37474F"/>
<path d="M155.318 275.294H153.452C152.322 270.846 151.214 266.397 150.129 261.948L148.857 256.861C147.907 253.023 146.952 249.173 145.991 245.313C145.991 245.143 145.915 244.965 145.872 244.795C141.328 226.388 136.868 207.937 132.832 189.411C132.781 189.19 132.73 188.97 132.688 188.75C132.688 188.725 132.697 188.701 132.715 188.684C132.732 188.666 132.756 188.656 132.781 188.656C132.806 188.656 132.829 188.666 132.847 188.684C132.864 188.701 132.874 188.725 132.874 188.75L132.933 188.97C138.021 207.123 142.777 225.43 147.348 243.727C147.441 244.041 147.517 244.363 147.594 244.677C147.975 246.186 148.348 247.678 148.73 249.179C149.255 251.307 149.798 253.419 150.332 255.564C152.017 262.127 153.679 268.703 155.318 275.294Z" fill="#263238"/>
<path d="M180.15 173.832L171.171 218.77L170.764 220.78L170.128 223.976L169.111 229.064L168.17 233.803V234.015L167.991 234.863L159.945 275.189H144.818C144.253 272.979 143.688 270.763 143.123 268.542C142.755 267.083 142.385 265.628 142.012 264.175C142.012 264.082 141.97 263.997 141.944 263.904C141.452 262.004 140.977 260.105 140.494 258.206C140.443 258.019 140.392 257.833 140.35 257.646C139.985 256.196 139.612 254.746 139.256 253.313C138.329 249.713 137.419 246.149 136.526 242.621C136.187 241.282 135.848 239.934 135.5 238.611C135.491 238.548 135.477 238.485 135.458 238.424C135.246 237.577 135.025 236.729 134.813 235.881C133.431 230.471 132.1 225.223 130.828 220.203L130.37 218.465C129.251 214.047 128.183 209.842 127.174 205.891C127.03 205.323 126.894 204.763 126.75 204.195C126.504 203.22 126.266 202.27 126.021 201.337C125.8 200.49 125.588 199.659 125.385 198.845C124.774 196.445 124.189 194.19 123.689 192.061C123.604 191.714 123.511 191.383 123.434 191.052C122.671 188.093 122.002 185.439 121.417 183.15C121.306 182.743 121.213 182.353 121.111 181.971C120.899 181.124 120.696 180.343 120.518 179.623C120.424 179.258 120.34 178.911 120.246 178.58L119 173.688L180.15 173.832Z" fill="#263238"/>
<path d="M180.172 173.812C180.172 174.169 179.909 177.916 179.324 183.64C178.117 195.679 176.134 207.628 173.389 219.412C172.693 222.287 171.93 225.127 171.099 227.891C170.54 229.808 169.929 231.707 169.276 233.504L169.225 233.666L168.123 234.081C162.162 236.542 156.399 239.459 150.885 242.806C150.885 242.806 150.885 242.933 150.885 243.162C150.843 244.417 150.665 248.919 150.411 255.516C150.326 257.483 150.25 259.637 150.156 261.943C150.004 265.97 149.826 270.481 149.647 275.289H86.1231C86.971 264.614 87.768 253.778 88.582 243.272C88.582 243.272 82.6467 226.645 83.2911 218.242C84.8936 197.893 94.017 173.821 94.017 173.821L180.172 173.812Z" fill="#37474F"/>
<path d="M158.487 218.481L158.563 213.393C158.614 210.29 158.826 207.187 158.945 204.067C159.216 197.038 159.53 189.983 160.123 182.971C160.123 182.801 160.42 182.801 160.428 182.971C160.53 185.761 160.589 188.542 160.581 191.331C160.572 194.121 160.666 196.91 160.657 199.691C160.657 205.22 160.657 210.714 160.428 216.276C160.352 218.405 159.58 222.313 162.65 222.551C165.092 222.737 166.508 220.168 166.94 218.125C167.34 215.575 167.533 212.998 167.517 210.417C167.624 207.591 167.684 204.784 167.695 201.998C167.695 195.884 167.839 189.788 168 183.683C168 183.505 168.28 183.522 168.305 183.683C169.007 189.841 169.401 196.03 169.484 202.227C169.484 205.194 169.484 208.162 169.357 211.138C169.263 213.911 169.314 216.87 168.458 219.541C167.788 221.635 166.27 223.645 164.049 224.196C164.004 224.192 163.958 224.192 163.913 224.196C163.943 224.212 163.969 224.235 163.988 224.263C164.007 224.291 164.019 224.323 164.023 224.357C164.117 225.332 164.278 226.307 164.303 227.29C164.329 228.274 164.303 229.249 164.218 230.216C164.176 231.21 164.057 232.199 163.862 233.175C163.776 233.643 163.66 234.104 163.515 234.557C163.362 235.032 163.108 235.405 162.913 235.871C162.896 235.907 162.868 235.936 162.834 235.954C162.799 235.973 162.759 235.979 162.72 235.972C162.682 235.965 162.646 235.946 162.62 235.917C162.593 235.888 162.577 235.851 162.574 235.812C162.574 235.651 162.574 235.49 162.523 235.337C162.527 235.309 162.527 235.28 162.523 235.252C162.486 234.971 162.467 234.688 162.463 234.404C162.463 233.93 162.514 233.455 162.548 232.98C162.624 232.03 162.752 231.072 162.879 230.131C163.006 229.19 163.074 228.232 163.184 227.282C163.294 226.332 163.481 225.34 163.566 224.357C163.575 224.32 163.596 224.287 163.625 224.263C162.75 224.427 161.845 224.318 161.034 223.951C160.223 223.584 159.544 222.977 159.089 222.212C158.573 221.04 158.366 219.755 158.487 218.481Z" fill="#263238"/>
<path d="M145.473 245.109C147.467 243.583 149.566 242.201 151.756 240.971C154.059 239.577 156.453 238.336 158.92 237.258C163.753 235.163 168.739 233.73 173.725 232.077C173.869 232.026 173.971 232.28 173.826 232.331C168.993 234.256 164.364 236.808 159.7 239.115C157.403 240.242 155.079 241.311 152.739 242.345C150.399 243.379 148.059 244.583 145.659 245.465C145.473 245.508 145.329 245.228 145.473 245.109Z" fill="#263238"/>
<path d="M107.766 203.007C111.158 203.007 121.205 203.134 126.42 198.25C128.624 196.181 129.811 193.163 130.769 190.407C131.862 187.296 132.746 184.115 133.415 180.885C133.415 180.724 133.678 180.784 133.686 180.928C133.762 184.589 133.291 188.242 132.287 191.764C131.439 194.74 130.362 198.072 127.954 200.167C125.546 202.261 121.968 203.143 118.721 203.558C115.075 203.982 111.39 203.931 107.758 203.406C107.705 203.404 107.654 203.382 107.618 203.344C107.581 203.306 107.561 203.255 107.563 203.202C107.564 203.149 107.586 203.099 107.624 203.062C107.662 203.026 107.713 203.006 107.766 203.007Z" fill="#263238"/>
<path d="M189.172 202.529C187.646 202.63 183.127 203.105 180.422 198.425C179.277 196.432 178.523 193.465 177.878 190.751C177.141 187.682 176.53 184.545 175.971 181.34C175.971 181.187 175.843 181.246 175.852 181.39C176.089 184.999 176.568 188.588 177.285 192.133C177.878 195.076 178.633 198.357 179.871 200.366C180.334 201.171 180.971 201.861 181.735 202.388C182.5 202.915 183.372 203.264 184.289 203.41C185.946 203.715 187.657 203.535 189.215 202.893C189.308 202.851 189.283 202.52 189.172 202.529Z" fill="#263238"/>
<path d="M103.191 179.177C103.106 179.49 94.8388 210.651 95.2204 218.18C95.6019 225.709 100.019 240.946 100.036 241.073C100.053 241.2 99.2479 254.546 98.0523 275.277H96.4413L98.4169 241.26C98.2304 240.132 93.974 225.658 93.6009 218.282C93.1939 210.464 101.232 180.025 101.614 178.736C101.708 178.577 101.851 178.454 102.021 178.384C102.192 178.314 102.381 178.301 102.559 178.348C102.737 178.395 102.895 178.499 103.009 178.644C103.123 178.789 103.187 178.967 103.191 179.151V179.177Z" fill="#263238"/>
<path d="M159.497 83.5511C192.082 112.269 222.352 143.752 224.87 160.006C228.364 182.475 214.594 188.877 208.396 189.004C191.505 189.36 160.065 121.266 149.094 95.2521C138.453 70.0018 152.341 77.2852 159.497 83.5511Z" fill="#009247"/>
<path d="M181.817 173.811L177.272 145.254C177.272 145.254 188.583 133.553 182.732 121.292C179.782 115.077 159.695 84.8327 148.969 77.2016C138.905 70.0623 126.975 75.9891 122.506 83.7135C111.229 103.207 100.52 125.625 94 173.836L181.817 173.811Z" fill="#009247"/>
<path d="M163.887 141.548C159.309 142.043 154.774 142.88 150.321 144.049C148.116 144.66 145.962 145.372 143.809 146.127C142.74 146.5 141.655 146.839 140.57 147.178C139.445 147.56 138.277 147.805 137.093 147.907C137.077 147.913 137.062 147.924 137.051 147.938C137.041 147.953 137.035 147.97 137.035 147.988C137.035 148.006 137.041 148.023 137.051 148.038C137.062 148.052 137.077 148.063 137.093 148.069C138.226 148.104 139.359 148.061 140.485 147.941C141.565 147.791 142.633 147.567 143.682 147.271C145.92 146.669 148.125 145.974 150.363 145.355C154.857 144.1 159.359 142.812 163.929 141.921C164.167 141.879 164.099 141.523 163.887 141.548Z" fill="#263238"/>
<path d="M175.265 145.392C171.493 145.073 167.705 144.965 163.92 145.07C162.021 145.129 160.147 145.299 158.265 145.519C157.366 145.63 156.467 145.748 155.569 145.884C154.67 146.02 153.618 146.308 152.635 146.435C152.533 146.435 152.533 146.613 152.635 146.596C153.568 146.503 154.517 146.596 155.458 146.52L158.282 146.393C160.173 146.308 162.064 146.24 163.946 146.138C167.727 145.935 171.484 145.774 175.265 145.706C175.301 145.698 175.332 145.678 175.355 145.649C175.377 145.621 175.39 145.585 175.39 145.549C175.39 145.513 175.377 145.477 175.355 145.449C175.332 145.42 175.301 145.4 175.265 145.392Z" fill="#263238"/>
<path d="M121.409 80.7609C91.037 104.587 61.208 145.769 61.0045 168.798C60.7841 191.53 68.7034 189.326 70.9503 189.148C84.6863 188.249 117.034 124.97 126.912 99.1772C136.671 73.6047 128.87 74.868 121.409 80.7609Z" fill="#009247"/>
<path d="M89.1719 171.411C90.7659 168.545 92.4024 165.713 93.9455 162.83L98.6768 154.224C101.797 148.475 104.968 142.752 108.004 136.952C111.039 131.153 114.168 125.421 117.152 119.604C118.662 116.705 120.131 113.785 121.562 110.846C123.045 107.929 124.394 104.953 125.801 101.977C123.636 108.168 121.128 114.234 118.289 120.147C115.508 126.082 112.481 131.907 109.445 137.715C106.41 143.524 103.128 149.204 99.7791 154.834C96.4299 160.464 92.9535 166.052 89.1719 171.411Z" fill="#263238"/>
<path d="M122.586 109.6C123.147 108.569 123.773 107.575 124.46 106.624C124.799 106.158 125.121 105.683 125.486 105.234C125.85 104.784 126.19 104.301 126.596 103.852C126.324 105.019 125.817 106.118 125.104 107.082C124.427 108.069 123.573 108.923 122.586 109.6Z" fill="#263238"/>
<path d="M215.376 126.735C213.782 116.06 210.593 101.179 206.744 98.1014C202.691 94.8709 188.014 84.0687 183.791 82.6612C179.569 81.2537 160.746 74.3264 157.32 76.3529C154.581 77.9808 157.931 85.1964 166.893 88.5711C174.761 91.5387 178.831 94.3368 181.087 95.2864C183.342 96.2361 188.964 103.587 187.497 106.886C186.649 108.827 181.044 111.125 177.534 109.607C174.024 108.09 173.083 101.128 169.055 97.9403C165.028 94.7522 157.99 95.2016 157.6 97.0924C157.21 98.9832 159.55 99.8566 163.221 106.284C165.587 110.413 165.85 120.384 171.183 127.481C173.863 131.042 178.577 140.556 178.577 140.556L215.376 126.735Z" fill="#F3A398"/>
<path d="M165.291 95.0326C164.003 94.8546 162.79 94.3201 161.789 93.4894C161.472 93.2023 161.229 92.8424 161.081 92.4407C160.934 92.039 160.886 91.6075 160.941 91.1832C160.948 90.8703 161.065 90.5699 161.272 90.3353C161.34 90.2844 161.272 90.1996 161.204 90.2674C161.107 90.419 161 90.5635 160.882 90.6999C160.804 90.8257 160.738 90.9592 160.687 91.0984C160.591 91.3705 160.545 91.6577 160.551 91.9463C160.579 92.6012 160.83 93.2269 161.264 93.7184C161.78 94.2483 162.413 94.6506 163.112 94.8935C163.811 95.1363 164.557 95.213 165.291 95.1174C165.35 95.1344 165.35 95.0411 165.291 95.0326Z" fill="#263238"/>
<path d="M206.743 98.1082C203.284 92.8089 194.491 83.287 185.843 80.0735C180.001 77.8944 160.067 87.8656 160.694 91.6897C161.322 95.5137 164.739 95.4882 169.801 94.8269C171.641 94.5895 181.366 90.9859 183.053 93.0124C185.478 95.9291 188.624 105.96 188.624 105.96L206.743 98.1082Z" fill="#F3A398"/>
<path d="M161.183 90.1724C163.616 86.0431 169.026 83.7962 174.427 82.0156C174.44 82.0204 174.451 82.0291 174.459 82.0405C174.467 82.0519 174.471 82.0654 174.471 82.0792C174.471 82.0931 174.467 82.1066 174.459 82.118C174.451 82.1293 174.44 82.138 174.427 82.1428C173.054 82.6007 164.252 86.7469 161.2 90.2317C161.208 90.2741 161.158 90.2063 161.183 90.1724Z" fill="#263238"/>
<path d="M206.736 98.0977C203.277 92.7984 194.484 83.2765 185.836 80.063C179.994 77.8839 164.274 90.5345 164.901 94.3585C165.529 98.1825 170.446 98.4369 175.856 96.4867C177.603 95.8593 183.487 91.6537 185.132 93.6802C187.557 96.597 193.467 103.855 193.467 103.855L206.736 98.0977Z" fill="#F3A398"/>
<path d="M190.088 99.3431C189.528 98.4952 189.342 98.2154 188.774 97.393C188.205 96.5705 187.62 95.748 187.001 94.9765C186.508 94.2475 185.891 93.6105 185.178 93.0941C184.445 92.6902 183.6 92.5355 182.77 92.6532C180.888 92.8482 179.201 94.0607 177.615 94.9934C175.843 96.0363 172.155 97.7321 169.323 97.4608C168.542 97.4292 167.776 97.2327 167.076 96.8842C166.547 96.6466 166.084 96.2827 165.728 95.8244C164.473 93.7555 165.982 91.3559 167.534 89.6517C170.434 86.4805 174.317 84.1658 178.141 82.2495C179.074 81.7832 180.015 81.3338 180.964 80.8929C182.009 80.3155 183.166 79.9685 184.356 79.8754C186.323 79.833 189.571 81.8001 190.58 82.4191C190.656 82.4615 190.715 82.3343 190.639 82.2919C189.418 81.5458 186.399 79.1208 183.22 79.3158C182.061 79.5024 180.944 79.8928 179.922 80.4689C178.819 80.9522 177.734 81.4779 176.657 82.0291C174.561 83.0896 172.548 84.3085 170.637 85.675C168.729 86.9445 167.069 88.5506 165.736 90.4148C165.18 91.2457 164.859 92.2122 164.808 93.2111C164.757 94.2101 164.978 95.2041 165.448 96.0872C166.296 97.5201 168.187 97.8508 169.043 97.9441C169.873 98.0543 170.714 98.0543 171.544 97.9441C173.393 97.5057 175.209 96.9391 176.979 96.2483C178.675 95.5445 180.235 94.366 181.999 93.8148C182.832 93.5278 183.745 93.5765 184.543 93.9505C185.27 94.4303 185.922 95.0162 186.476 95.6887C187.677 96.8415 188.767 98.1048 189.732 99.4618C190.028 99.8349 190.291 99.7162 190.088 99.3431Z" fill="#263238"/>
<path d="M209.322 102.721C208.041 100.177 205.828 89.7566 203.777 86.5685C201.725 83.3804 192.389 72.3832 188.09 72.9088C182.689 73.5702 188.43 83.2617 191.304 87.2468C194.178 91.2319 193.771 98.0575 193.771 98.0575L209.322 102.721Z" fill="#F3A398"/>
<path d="M187.287 80.6798C188.304 81.9347 189.211 83.3337 190.102 84.6904C191.015 85.9495 191.837 87.2728 192.56 88.65C193.167 90.0612 193.539 91.5619 193.663 93.093C193.739 93.8476 193.773 94.5938 193.79 95.3484C193.807 96.1031 193.731 97.0442 193.79 97.8328C193.79 97.9175 193.654 97.9345 193.654 97.8328C193.535 96.3287 193.323 94.8336 193.018 93.3559C192.737 91.8202 192.267 90.3251 191.619 88.9044C190.322 86.0809 188.448 83.5796 187.125 80.7731C187.049 80.6205 187.21 80.5441 187.287 80.6798Z" fill="#263238"/>
<path d="M193.69 99.2031C194.064 101.798 193.317 104.426 192.385 106.834C191.907 108.05 191.341 109.229 190.689 110.361C190.026 111.48 189.29 112.554 188.484 113.575C186.934 115.521 185.635 117.655 184.618 119.926C183.657 122.26 182.985 124.703 182.617 127.201C182.4 124.606 182.688 121.995 183.465 119.51C184.309 117.025 185.568 114.7 187.187 112.634C188.728 110.667 190.064 108.548 191.172 106.308C192.283 104.045 193.402 101.755 193.69 99.2031Z" fill="#263238"/>
<path d="M206.84 188.229C196.292 186.805 189.398 169.169 177.358 138.203C175.239 132.76 202.795 99.2934 206.543 104.288C211.266 110.579 223.984 145.606 225.315 155.161C227.952 173.951 219.151 189.891 206.84 188.229Z" fill="#F3A398"/>
<path d="M183.715 155.455L217.707 122.43C217.707 122.43 227.365 150.851 226.457 162.764C225.55 174.677 221.37 188.252 207.057 188.998C196.323 189.558 183.715 155.455 183.715 155.455Z" fill="#009247"/>
<path d="M194.712 178.312C193.483 176.574 192.389 174.751 191.32 172.92C190.252 171.088 189.269 169.214 188.31 167.324C187.352 165.433 186.471 163.491 185.69 161.516C184.855 159.557 184.194 157.528 183.715 155.453C184.614 157.378 185.563 159.26 186.521 161.143L189.379 166.789C190.303 168.689 191.244 170.58 192.126 172.496C193.008 174.412 193.915 176.337 194.712 178.312Z" fill="#263238"/>
<path d="M191.027 161.224C192.672 159.41 194.486 157.731 196.233 156.027C197.979 154.322 199.76 152.635 201.558 150.939C205.136 147.598 208.745 144.286 212.385 141.002C213.386 140.103 214.389 139.213 215.395 138.331C216.481 137.39 217.685 136.584 218.787 135.635C218.805 135.626 218.826 135.623 218.846 135.627C218.867 135.631 218.885 135.641 218.898 135.657C218.912 135.672 218.92 135.692 218.921 135.712C218.923 135.733 218.917 135.753 218.906 135.77C218.058 136.618 217.286 137.559 216.438 138.416C215.59 139.272 214.658 140.171 213.75 141.036C211.981 142.732 210.2 144.413 208.409 146.081C204.822 149.421 201.227 152.754 197.539 155.984C195.453 157.807 193.409 159.706 191.222 161.402C191.198 161.428 191.165 161.444 191.13 161.445C191.095 161.447 191.061 161.434 191.035 161.411C191.009 161.387 190.994 161.354 190.992 161.319C190.991 161.284 191.003 161.25 191.027 161.224Z" fill="#263238"/>
<path d="M130.384 78.1362C130.63 79.832 137.795 91.7873 147.291 91.2108C152.777 90.8547 149.046 79.832 149.046 79.832L153.82 64.7734L135.616 50.8594C135.616 50.8594 130.291 77.3985 130.384 78.1362Z" fill="#F3A398"/>
<path d="M133.664 60.7941C134.884 64.7424 136.903 68.3975 139.596 71.5322C142.288 74.6669 145.597 77.2141 149.316 79.0154L153.827 64.8046L135.614 50.8906C135.614 50.8906 134.732 55.359 133.664 60.7941Z" fill="#263238"/>
<path d="M175.275 43.6626C175.817 69.5234 160.386 72.7709 154.806 72.8811C149.719 72.9828 132.49 72.6776 129.276 47.0033C126.063 21.329 137.925 12.9009 149.49 12.0615C161.055 11.2221 174.74 17.7933 175.275 43.6626Z" fill="#F3A398"/>
<path d="M169.231 41.588C168.658 41.453 168.092 41.2889 167.535 41.0962C166.891 41.011 166.294 40.7125 165.839 40.2483C165.727 40.0788 165.675 39.8768 165.69 39.6742C165.705 39.4716 165.788 39.2798 165.924 39.1291C166.238 38.8716 166.614 38.7021 167.015 38.6381C167.416 38.574 167.827 38.6176 168.205 38.7645C169.02 38.9475 169.738 39.4245 170.223 40.1042C170.321 40.2644 170.37 40.4492 170.367 40.6368C170.363 40.8244 170.305 41.007 170.201 41.163C170.097 41.319 169.95 41.4419 169.778 41.5172C169.606 41.5925 169.416 41.6171 169.231 41.588Z" fill="#263238"/>
<path d="M151.485 40.8224C152.08 40.7744 152.672 40.6923 153.258 40.5765C153.894 40.5841 154.515 40.3781 155.021 39.9915C155.158 39.8407 155.24 39.649 155.255 39.4464C155.271 39.2437 155.218 39.0417 155.106 38.8722C154.835 38.569 154.487 38.3444 154.099 38.222C153.711 38.0997 153.298 38.0841 152.901 38.177C152.068 38.2283 151.286 38.5951 150.714 39.2029C150.591 39.3474 150.513 39.5243 150.489 39.7122C150.464 39.9001 150.495 40.091 150.576 40.2621C150.658 40.4332 150.787 40.5771 150.948 40.6765C151.109 40.7758 151.296 40.8265 151.485 40.8224Z" fill="#263238"/>
<path d="M154.705 47.6114C154.705 47.5436 154.57 47.6877 154.561 47.764C154.561 49.5192 154.197 51.5372 152.577 52.0035C152.526 52.0035 152.526 52.1053 152.577 52.1053C154.544 51.9442 154.96 49.3072 154.705 47.6114Z" fill="#263238"/>
<path d="M153.226 45.6731C150.411 45.3085 149.894 50.9809 152.506 51.3116C155.117 51.6423 155.592 45.9699 153.226 45.6731Z" fill="#263238"/>
<path d="M152.086 45.9231C151.56 46.2029 151.026 46.7201 150.39 46.771C149.754 46.8219 149.22 46.1351 148.822 45.5246C148.779 45.4652 148.728 45.5246 148.72 45.5839C148.61 46.6693 148.923 47.8139 150.077 48.0852C151.23 48.3566 151.967 47.4324 152.34 46.3894C152.442 46.0842 152.298 45.7705 152.086 45.9231Z" fill="#263238"/>
<path d="M165.338 47.7735C165.338 47.7057 165.465 47.8753 165.457 47.9431C165.228 49.6898 165.262 51.7332 166.797 52.4709C166.839 52.4709 166.797 52.5811 166.797 52.5641C164.855 52.1063 164.838 49.393 165.338 47.7735Z" fill="#263238"/>
<path d="M167.073 46.0785C169.914 46.1463 169.617 51.8187 166.946 51.7678C164.275 51.717 164.691 46.0276 167.073 46.0785Z" fill="#263238"/>
<path d="M168.248 46.5409C168.681 46.8631 169.096 47.4396 169.622 47.5075C170.148 47.5753 170.741 46.9902 171.174 46.4306C171.216 46.3713 171.258 46.4306 171.258 46.4985C171.258 47.5838 170.792 48.6945 169.741 48.8386C168.689 48.9828 168.13 47.9908 167.935 46.9054C167.901 46.702 168.045 46.4052 168.248 46.5409Z" fill="#263238"/>
<path d="M154.672 61.1344C155.036 61.6008 155.375 62.2198 156.003 62.3554C156.653 62.4321 157.311 62.3714 157.936 62.1774C157.995 62.1774 158.046 62.2282 158.004 62.2706C157.707 62.5809 157.333 62.8053 156.919 62.9202C156.506 63.0351 156.069 63.0363 155.655 62.9235C155.308 62.7837 155.011 62.5436 154.801 62.2341C154.591 61.9245 154.478 61.5594 154.477 61.1853C154.477 61.0836 154.621 61.0666 154.672 61.1344Z" fill="#263238"/>
<path d="M162.523 55.3507C162.523 55.3507 162.684 57.9962 162.583 59.2341C162.583 59.3528 162.269 59.3867 161.854 59.3782H161.803C160.725 59.4852 159.639 59.2952 158.661 58.8289C157.684 58.3626 156.852 57.6377 156.257 56.7328C156.181 56.6056 156.351 56.4869 156.452 56.5717C157.948 57.774 159.792 58.461 161.709 58.5303C161.82 58.1997 161.285 54.0026 161.489 54.0026C162.442 54.159 163.369 54.4442 164.245 54.8505C164.084 49.3137 163.024 43.8278 162.947 38.3419C162.939 38.2992 162.949 38.2551 162.974 38.2193C162.998 38.1835 163.036 38.159 163.079 38.1511C163.121 38.1433 163.166 38.1527 163.201 38.1773C163.237 38.202 163.262 38.2398 163.27 38.2826C164.779 43.9296 165.109 50.2973 165.432 56.0036C165.508 56.7243 163.007 55.5966 162.523 55.3507Z" fill="#263238"/>
<path d="M129.891 46.4245C136.258 47.2724 141.388 28.1269 141.99 25.7697C141.693 27.279 140.116 35.2492 140.668 35.6732C141.347 35.7891 142.04 35.7891 142.719 35.6732C142.886 34.7155 143.124 33.7717 143.432 32.8497C143.559 32.4172 143.432 33.8417 143.432 35.6138C143.805 35.6138 144.212 35.5205 144.653 35.4866C144.931 33.4276 145.481 31.4146 146.289 29.5005C146.603 28.7798 146.23 32.2137 146.45 35.3086C151.012 34.8676 157.583 34.3928 163.51 35.1898C165.104 35.4018 166.461 35.6477 167.656 35.9106C168.063 33.5534 168.216 30.9843 168.3 31.5609C168.531 33.0669 168.613 34.5919 168.546 36.1141C169.191 36.2667 169.784 36.4108 170.318 36.555C171.048 33.2482 170.361 27.6436 170.759 28.5508C171.92 31.3338 172.541 34.3118 172.591 37.3266C174.795 38.1744 175.347 38.7001 175.516 38.1236C175.804 37.0722 176.084 27.5079 169.962 19.419C163.315 10.6348 147.849 6.09004 137.013 16.0274C137.013 16.0274 128.873 19.5716 126.414 27.05C123.955 34.5285 126.202 45.9242 129.891 46.4245Z" fill="#263238"/>
<path d="M133.678 47.143C133.678 47.143 128.591 38.7149 124.784 40.487C120.977 42.2591 124.462 54.2145 128.65 56.0968C129.171 56.3745 129.743 56.544 130.331 56.5951C130.919 56.6462 131.511 56.5778 132.072 56.394C132.632 56.2102 133.15 55.9149 133.594 55.5257C134.038 55.1366 134.398 54.6617 134.653 54.1297L133.678 47.143Z" fill="#F3A398"/>
<path d="M125.854 43.8906C125.843 43.895 125.833 43.9026 125.827 43.9125C125.82 43.9223 125.816 43.9339 125.816 43.9457C125.816 43.9576 125.82 43.9692 125.827 43.979C125.833 43.9888 125.843 43.9965 125.854 44.0009C128.787 45.4253 130.186 48.3166 131.111 51.2843C130.263 50.1142 129.11 49.4189 127.55 50.3855C127.465 50.4364 127.55 50.5636 127.617 50.5551C128.157 50.4211 128.724 50.4575 129.242 50.6595C129.76 50.8614 130.202 51.219 130.509 51.6828C131.015 52.4648 131.438 53.2974 131.772 54.1671C131.891 54.4469 132.391 54.3367 132.306 54.023C132.302 53.9977 132.302 53.972 132.306 53.9467C132.578 50.1566 129.949 44.552 125.854 43.8906Z" fill="#263238"/>
<path d="M156.097 90.2931L141.751 134.655C141.182 135.944 141.751 137.063 143.082 137.148L166.356 138.674C167.071 138.667 167.768 138.458 168.368 138.071C168.969 137.683 169.447 137.134 169.748 136.487L184.069 92.1246C184.637 90.8273 184.069 89.7081 182.746 89.5809L159.472 88.0547C158.754 88.0685 158.056 88.2864 157.458 88.6828C156.861 89.0793 156.389 89.6379 156.097 90.2931Z" fill="#37474F"/>
<path d="M158.861 90.4376L144.54 134.8C143.971 136.097 144.54 137.216 145.871 137.301L169.146 138.827C169.86 138.82 170.557 138.611 171.158 138.224C171.758 137.836 172.236 137.287 172.537 136.639L186.858 92.269C187.426 90.9802 186.858 89.861 185.535 89.7762L162.261 88.25C161.545 88.2535 160.844 88.4612 160.242 88.8486C159.64 89.2361 159.161 89.7873 158.861 90.4376Z" fill="#455A64"/>
<path d="M165.117 92.9182C165.084 93.3093 164.935 93.6817 164.69 93.9883C164.445 94.295 164.115 94.522 163.741 94.6408C163.367 94.7596 162.966 94.7647 162.589 94.6555C162.212 94.5464 161.875 94.3278 161.623 94.0275C161.37 93.7273 161.212 93.3588 161.168 92.9686C161.125 92.5785 161.198 92.1843 161.379 91.8359C161.56 91.4875 161.84 91.2005 162.184 91.0113C162.528 90.8221 162.92 90.7392 163.311 90.773C163.835 90.8183 164.319 91.0697 164.658 91.4719C164.997 91.8741 165.162 92.3943 165.117 92.9182Z" fill="#263238"/>
<path d="M67.7986 189.13C77.9733 190.529 90.6324 182.636 123.488 158.649C128.033 155.333 113.237 116.949 108.226 120.239C101.884 124.394 78.1599 141.869 76.5913 143.369C63.2962 155.995 60.9052 188.181 67.7986 189.13Z" fill="#F3A398"/>
<path d="M96.4688 131.842C96.4688 131.842 105.796 118.717 112.876 113.341C122.321 106.142 133.437 103.811 138.151 103.115C147.995 101.666 172.805 104.972 173.102 112.281C173.373 118.903 148.182 114.248 148.182 114.248C148.182 114.248 174.645 114.757 173.509 122.787C172.372 130.816 143.459 123.745 143.459 123.745C143.459 123.745 170.643 124.872 168.158 132.97C166.276 139.083 139.711 134.157 139.711 134.157C139.711 134.157 163.063 135.293 161.401 141.669C159.561 148.707 134.76 145.697 134.76 145.697C127.807 161.188 117.802 165.546 110.586 167.954C108.797 168.539 96.4688 131.842 96.4688 131.842Z" fill="#F3A398"/>
<path d="M139.032 113.488C142.144 113.429 145.29 113.361 148.359 113.581C151.428 113.802 154.566 114.141 157.635 114.65C161.661 115.242 165.607 116.292 169.395 117.779C162.476 115.633 151.377 114.658 148.274 114.429C145.171 114.2 142.085 113.827 138.947 113.581C138.939 113.598 138.956 113.488 139.032 113.488Z" fill="#263238"/>
<path d="M138.013 124.688C141.99 124.798 145.941 124.755 149.883 125.035C153.826 125.315 157.557 125.925 161.483 126.477C161.779 126.519 161.661 126.663 161.356 126.629C157.413 126.239 153.724 126.18 149.79 125.832C145.856 125.485 141.913 124.984 137.971 124.781C137.945 124.781 137.954 124.688 138.013 124.688Z" fill="#263238"/>
<path d="M135.432 134.086C141.52 133.933 147.616 134.934 153.585 136.002C153.882 136.061 153.704 136.231 153.399 136.197C147.37 135.442 142.656 134.815 135.44 134.298C135.322 134.323 135.305 134.086 135.432 134.086Z" fill="#263238"/>
<path d="M96.4519 126.625L109.399 173.802C109.399 173.802 74.6355 194.245 67.0044 188.844C59.3734 183.443 64.3421 156.191 73.0669 145.804C76.645 141.472 96.4519 126.625 96.4519 126.625Z" fill="#009247"/>
<path d="M96.8933 128.178L96.3846 126.627L96.5117 126.677C93.2304 129.357 89.9405 132.011 86.6931 134.715C83.4457 137.42 80.1897 140.117 77.1034 142.974C75.5394 144.358 74.0667 145.842 72.6943 147.417C71.3813 149.038 70.2097 150.768 69.1925 152.589C67.1755 156.299 65.7616 160.306 65.0039 164.46C65.3385 160.193 66.4899 156.031 68.3955 152.199C69.3529 150.273 70.5126 148.454 71.8549 146.773C73.2356 145.131 74.7226 143.581 76.3064 142.135C79.4521 139.277 82.7504 136.598 86.0911 133.995C89.4318 131.392 92.8743 128.907 96.4185 126.576L96.5202 126.508V126.618L96.8933 128.178Z" fill="#263238"/>
<path d="M88.8571 138.356C89.6457 140.67 90.2477 143.061 90.9006 145.418C91.5534 147.776 92.1894 150.15 92.7914 152.532C93.9954 157.281 95.174 162.037 96.2847 166.811C96.59 168.117 96.8952 169.422 97.1326 170.737C97.37 172.051 97.565 173.577 97.8788 174.976C97.8815 174.987 97.8821 174.999 97.8804 175.01C97.8787 175.022 97.8748 175.033 97.8689 175.042C97.857 175.062 97.8377 175.077 97.8152 175.082C97.7927 175.088 97.7689 175.084 97.749 175.072C97.7291 175.06 97.7148 175.041 97.7092 175.019C97.3955 173.857 96.9122 172.738 96.573 171.576C96.2338 170.414 95.8862 169.177 95.5725 167.964C94.945 165.596 94.3289 163.224 93.7241 160.85C92.5116 156.102 91.3245 151.345 90.2731 146.555C89.6796 143.858 89.0013 141.145 88.5773 138.415C88.5734 138.397 88.5732 138.378 88.5766 138.359C88.5801 138.341 88.5871 138.323 88.5973 138.307C88.6076 138.292 88.6208 138.278 88.6363 138.267C88.6518 138.257 88.6692 138.249 88.6876 138.245C88.7059 138.241 88.7249 138.241 88.7434 138.245C88.7618 138.248 88.7794 138.255 88.7952 138.265C88.8109 138.276 88.8245 138.289 88.8351 138.304C88.8458 138.32 88.8532 138.337 88.8571 138.356Z" fill="#263238"/>
<path d="M109.415 173.802C109.644 174.243 109.627 173.869 109.576 173.598C109.525 173.327 108.991 171.054 108.491 169.613C108.44 169.469 108.22 169.215 108.304 169.732C108.602 171.107 108.973 172.466 109.415 173.802Z" fill="#263238"/>
</svg>
