<svg width="21" height="17" viewBox="0 0 21 17" fill="none" xmlns="http://www.w3.org/2000/svg">
<path d="M19.0312 0H1.96875C0.881426 0 0 0.95138 0 2.125V14.875C0 16.0486 0.881426 17 1.96875 17H19.0312C20.1186 17 21 16.0486 21 14.875V2.125C21 0.95138 20.1186 0 19.0312 0ZM19.0312 2.125V3.93147C18.1116 4.73981 16.6455 5.99675 13.5111 8.64587C12.8203 9.23233 11.4521 10.6412 10.5 10.6248C9.54811 10.6414 8.17938 9.23211 7.48892 8.64587C4.35504 5.99715 2.88853 4.73994 1.96875 3.93147V2.125H19.0312ZM1.96875 14.875V6.65824C2.90858 7.46623 4.24138 8.60005 6.27285 10.3171C7.16933 11.0787 8.73928 12.7602 10.5 12.75C12.2521 12.7602 13.8021 11.1031 14.7268 10.3174C16.7582 8.60045 18.0914 7.46632 19.0312 6.65829V14.875H1.96875Z" fill="#8391A1"/>
</svg>
